<mxfile host="app.diagrams.net" modified="2020-12-06T06:26:14.934Z" agent="5.0 (Windows NT 10.0; Win64; x64) AppleWebKit/537.36 (KHTML, like Gecko) Chrome/87.0.4280.88 Safari/537.36" etag="buaMQs1cbcmWk7BHFKLd" version="13.10.9" type="github">
  <diagram id="uqkbcDt2_l0e1CLEkKH2" name="Page-1">
    <mxGraphModel dx="1038" dy="588" grid="1" gridSize="10" guides="1" tooltips="1" connect="1" arrows="1" fold="1" page="1" pageScale="1" pageWidth="1169" pageHeight="827" math="0" shadow="0">
      <root>
        <mxCell id="0" />
        <mxCell id="1" parent="0" />
        <mxCell id="pPRYekGPoHE3d8YEOr2Z-12" style="edgeStyle=orthogonalEdgeStyle;shape=link;rounded=1;orthogonalLoop=1;jettySize=auto;html=1;entryX=1;entryY=0.25;entryDx=0;entryDy=0;strokeColor=#000000;strokeWidth=1;" edge="1" parent="1" source="pPRYekGPoHE3d8YEOr2Z-7" target="pPRYekGPoHE3d8YEOr2Z-3">
          <mxGeometry relative="1" as="geometry" />
        </mxCell>
        <mxCell id="pPRYekGPoHE3d8YEOr2Z-17" style="edgeStyle=orthogonalEdgeStyle;rounded=1;orthogonalLoop=1;jettySize=auto;html=1;exitX=1;exitY=0.5;exitDx=0;exitDy=0;exitPerimeter=0;strokeColor=#000000;strokeWidth=1;entryX=0.5;entryY=0;entryDx=0;entryDy=0;" edge="1" parent="1" source="pPRYekGPoHE3d8YEOr2Z-7" target="pPRYekGPoHE3d8YEOr2Z-15">
          <mxGeometry relative="1" as="geometry">
            <mxPoint x="950" y="330" as="targetPoint" />
          </mxGeometry>
        </mxCell>
        <mxCell id="pPRYekGPoHE3d8YEOr2Z-7" value="" style="shape=or;whiteSpace=wrap;html=1;" vertex="1" parent="1">
          <mxGeometry x="800" y="220" width="30" height="30" as="geometry" />
        </mxCell>
        <mxCell id="pPRYekGPoHE3d8YEOr2Z-13" style="edgeStyle=orthogonalEdgeStyle;shape=link;rounded=1;orthogonalLoop=1;jettySize=auto;html=1;strokeColor=#000000;strokeWidth=1;" edge="1" parent="1" source="pPRYekGPoHE3d8YEOr2Z-8">
          <mxGeometry relative="1" as="geometry">
            <mxPoint x="660" y="280" as="targetPoint" />
          </mxGeometry>
        </mxCell>
        <mxCell id="pPRYekGPoHE3d8YEOr2Z-16" style="edgeStyle=orthogonalEdgeStyle;rounded=1;orthogonalLoop=1;jettySize=auto;html=1;entryX=0.5;entryY=0;entryDx=0;entryDy=0;strokeColor=#000000;strokeWidth=1;" edge="1" parent="1" source="pPRYekGPoHE3d8YEOr2Z-8" target="pPRYekGPoHE3d8YEOr2Z-15">
          <mxGeometry relative="1" as="geometry" />
        </mxCell>
        <mxCell id="pPRYekGPoHE3d8YEOr2Z-8" value="" style="shape=or;whiteSpace=wrap;html=1;" vertex="1" parent="1">
          <mxGeometry x="800" y="260" width="30" height="30" as="geometry" />
        </mxCell>
        <mxCell id="pPRYekGPoHE3d8YEOr2Z-14" style="edgeStyle=orthogonalEdgeStyle;shape=link;rounded=1;orthogonalLoop=1;jettySize=auto;html=1;entryX=1;entryY=0.75;entryDx=0;entryDy=0;strokeColor=#000000;strokeWidth=1;" edge="1" parent="1" source="pPRYekGPoHE3d8YEOr2Z-9" target="pPRYekGPoHE3d8YEOr2Z-3">
          <mxGeometry relative="1" as="geometry" />
        </mxCell>
        <mxCell id="pPRYekGPoHE3d8YEOr2Z-18" style="edgeStyle=orthogonalEdgeStyle;rounded=1;orthogonalLoop=1;jettySize=auto;html=1;entryX=0.5;entryY=0;entryDx=0;entryDy=0;strokeColor=#000000;strokeWidth=1;" edge="1" parent="1" source="pPRYekGPoHE3d8YEOr2Z-9" target="pPRYekGPoHE3d8YEOr2Z-15">
          <mxGeometry relative="1" as="geometry" />
        </mxCell>
        <mxCell id="pPRYekGPoHE3d8YEOr2Z-9" value="" style="shape=or;whiteSpace=wrap;html=1;" vertex="1" parent="1">
          <mxGeometry x="800" y="300" width="30" height="30" as="geometry" />
        </mxCell>
        <mxCell id="pPRYekGPoHE3d8YEOr2Z-15" value="Coincidence Count" style="rounded=1;whiteSpace=wrap;html=1;" vertex="1" parent="1">
          <mxGeometry x="890" y="370" width="120" height="60" as="geometry" />
        </mxCell>
        <mxCell id="pPRYekGPoHE3d8YEOr2Z-19" value="Laser" style="rounded=0;whiteSpace=wrap;html=1;" vertex="1" parent="1">
          <mxGeometry x="820" y="470" width="100" height="40" as="geometry" />
        </mxCell>
        <mxCell id="pPRYekGPoHE3d8YEOr2Z-20" value="Nolinear crystal" style="rounded=0;whiteSpace=wrap;html=1;fillColor=none;" vertex="1" parent="1">
          <mxGeometry x="650" y="465" width="100" height="50" as="geometry" />
        </mxCell>
        <mxCell id="pPRYekGPoHE3d8YEOr2Z-23" value="" style="group" vertex="1" connectable="0" parent="1">
          <mxGeometry x="320" y="470" width="50" height="50" as="geometry" />
        </mxCell>
        <mxCell id="pPRYekGPoHE3d8YEOr2Z-21" value="" style="whiteSpace=wrap;html=1;aspect=fixed;fillColor=none;" vertex="1" parent="pPRYekGPoHE3d8YEOr2Z-23">
          <mxGeometry width="50" height="50" as="geometry" />
        </mxCell>
        <mxCell id="pPRYekGPoHE3d8YEOr2Z-22" value="" style="endArrow=none;html=1;strokeColor=#000000;strokeWidth=1;entryX=0;entryY=0;entryDx=0;entryDy=0;exitX=1;exitY=1;exitDx=0;exitDy=0;" edge="1" parent="pPRYekGPoHE3d8YEOr2Z-23" source="pPRYekGPoHE3d8YEOr2Z-21" target="pPRYekGPoHE3d8YEOr2Z-21">
          <mxGeometry width="50" height="50" relative="1" as="geometry">
            <mxPoint x="-180" y="90" as="sourcePoint" />
            <mxPoint x="-130" y="40" as="targetPoint" />
          </mxGeometry>
        </mxCell>
        <mxCell id="pPRYekGPoHE3d8YEOr2Z-24" value="" style="endArrow=none;html=1;strokeWidth=5;entryX=0;entryY=0.5;entryDx=0;entryDy=0;strokeColor=#FF4040;opacity=40;" edge="1" parent="1" target="pPRYekGPoHE3d8YEOr2Z-19">
          <mxGeometry width="50" height="50" relative="1" as="geometry">
            <mxPoint x="345" y="495" as="sourcePoint" />
            <mxPoint x="590" y="380" as="targetPoint" />
          </mxGeometry>
        </mxCell>
        <mxCell id="pPRYekGPoHE3d8YEOr2Z-25" value="" style="endArrow=none;html=1;strokeColor=#FF4040;strokeWidth=5;opacity=40;" edge="1" parent="1">
          <mxGeometry width="50" height="50" relative="1" as="geometry">
            <mxPoint x="347" y="492" as="sourcePoint" />
            <mxPoint x="347" y="282" as="targetPoint" />
          </mxGeometry>
        </mxCell>
        <mxCell id="pPRYekGPoHE3d8YEOr2Z-26" value="" style="group" vertex="1" connectable="0" parent="1">
          <mxGeometry x="410" y="250" width="250" height="60" as="geometry" />
        </mxCell>
        <mxCell id="pPRYekGPoHE3d8YEOr2Z-3" value="" style="rounded=0;whiteSpace=wrap;html=1;" vertex="1" parent="pPRYekGPoHE3d8YEOr2Z-26">
          <mxGeometry width="250" height="60" as="geometry" />
        </mxCell>
        <mxCell id="pPRYekGPoHE3d8YEOr2Z-4" value="" style="endArrow=none;html=1;fillColor=#f5f5f5;strokeColor=#666666;strokeWidth=6;opacity=20;" edge="1" parent="pPRYekGPoHE3d8YEOr2Z-26">
          <mxGeometry width="50" height="50" relative="1" as="geometry">
            <mxPoint y="20" as="sourcePoint" />
            <mxPoint x="250" y="20" as="targetPoint" />
          </mxGeometry>
        </mxCell>
        <mxCell id="pPRYekGPoHE3d8YEOr2Z-5" value="" style="endArrow=none;html=1;fillColor=#f5f5f5;strokeColor=#666666;strokeWidth=6;opacity=20;" edge="1" parent="pPRYekGPoHE3d8YEOr2Z-26">
          <mxGeometry width="50" height="50" relative="1" as="geometry">
            <mxPoint y="29.5" as="sourcePoint" />
            <mxPoint x="250" y="29.5" as="targetPoint" />
          </mxGeometry>
        </mxCell>
        <mxCell id="pPRYekGPoHE3d8YEOr2Z-6" value="" style="endArrow=none;html=1;fillColor=#f5f5f5;strokeColor=#666666;strokeWidth=6;opacity=20;" edge="1" parent="pPRYekGPoHE3d8YEOr2Z-26">
          <mxGeometry width="50" height="50" relative="1" as="geometry">
            <mxPoint y="40" as="sourcePoint" />
            <mxPoint x="250" y="40" as="targetPoint" />
          </mxGeometry>
        </mxCell>
      </root>
    </mxGraphModel>
  </diagram>
</mxfile>
